<svg width="46" height="37" viewBox="0 0 46 37" fill="none" xmlns="http://www.w3.org/2000/svg">
<path d="M4.29 30.27C3.59 30.27 3.05 30.08 2.67 29.7C2.31 29.3 2.13 28.74 2.13 28.02L2.13 10.92C2.13 10.16 2.31 9.58 2.67 9.18C3.05 8.78 3.55 8.58 4.17 8.58C4.71 8.58 5.12 8.69 5.4 8.91C5.7 9.11 6.04 9.45 6.42 9.93L16.95 23.34H16.14V10.8C16.14 10.1 16.32 9.56 16.68 9.18C17.06 8.78 17.6 8.58 18.3 8.58C19 8.58 19.53 8.78 19.89 9.18C20.27 9.56 20.46 10.1 20.46 10.8V28.11C20.46 28.77 20.29 29.3 19.95 29.7C19.61 30.08 19.15 30.27 18.57 30.27C18.01 30.27 17.56 30.16 17.22 29.94C16.9 29.72 16.55 29.37 16.17 28.89L5.67 15.48H6.45V28.02C6.45 28.74 6.27 29.3 5.91 29.7C5.55 30.08 5.01 30.27 4.29 30.27Z" fill="#FD377E"/>
<path d="M27.0374 30.5578C26.2774 30.5578 25.6974 30.3478 25.2974 29.9278C24.8974 29.5078 24.6974 28.9178 24.6974 28.1578V11.2378C24.6974 10.4778 24.8974 9.89778 25.2974 9.49778C25.6974 9.07778 26.2774 8.86778 27.0374 8.86778C27.7774 8.86778 28.3474 9.07778 28.7474 9.49778C29.1474 9.89778 29.3474 10.4778 29.3474 11.2378V18.3478H29.4074L37.3874 10.0078C37.7274 9.64778 38.0774 9.37778 38.4374 9.19778C38.8174 8.99778 39.2474 8.89778 39.7274 8.89778C40.4274 8.89778 40.9274 9.07778 41.2274 9.43778C41.5474 9.79778 41.6874 10.2178 41.6474 10.6978C41.6074 11.1778 41.3874 11.6278 40.9874 12.0478L32.9774 20.2378L33.0074 18.2278L41.4074 27.1978C41.8674 27.6978 42.0974 28.2078 42.0974 28.7278C42.1174 29.2478 41.9474 29.6878 41.5874 30.0478C41.2474 30.3878 40.7374 30.5578 40.0574 30.5578C39.4774 30.5578 39.0074 30.4378 38.6474 30.1978C38.3074 29.9578 37.9274 29.6078 37.5074 29.1478L29.4074 20.6278H29.3474V28.1578C29.3474 28.9178 29.1474 29.5078 28.7474 29.9278C28.3674 30.3478 27.7974 30.5578 27.0374 30.5578Z" fill="#212529"/>
</svg>
